<?xml version="1.0" encoding="UTF-8"?>
<svg xmlns="http://www.w3.org/2000/svg" xmlns:xlink="http://www.w3.org/1999/xlink" width="804px" height="600px" viewBox="0 0 804 600" version="1.1">
<g id="surface1">
<path style=" stroke:none;fill-rule:nonzero;fill:rgb(0%,0%,0%);fill-opacity:1;" d="M 68.53125 400.789062 L 68.53125 231.511719 L 181.15625 231.511719 L 181.15625 167.902344 L 68.53125 167.902344 L 68.53125 72.097656 L 202.820312 72.097656 L 202.820312 8.808594 L 1.277344 8.808594 L 1.277344 400.789062 Z M 68.53125 400.789062 "/>
<path style=" stroke:none;fill-rule:nonzero;fill:rgb(0%,0%,0%);fill-opacity:1;" d="M 666.171875 167.394531 L 666.109375 167.457031 L 573.488281 8.808594 L 527.480469 8.808594 L 527.480469 400.789062 L 594.738281 400.789062 L 594.738281 148.054688 L 658.960938 260.203125 L 673.414062 260.203125 L 737.605469 148.054688 L 737.605469 400.789062 L 804.863281 400.789062 L 804.863281 8.808594 L 758.855469 8.808594 L 666.234375 167.457031 Z M 666.171875 167.394531 "/>
<path style=" stroke:none;fill-rule:nonzero;fill:rgb(0%,0%,0%);fill-opacity:1;" d="M 474.105469 298.085938 L 474.105469 111.511719 C 474.105469 111.511719 474.105469 0 362.597656 0 L 356.183594 0 C 356.183594 0 244.710938 0 244.710938 111.511719 L 244.710938 298.085938 C 244.710938 298.085938 244.710938 409.628906 356.183594 409.628906 L 362.597656 409.628906 C 362.597656 409.628906 474.105469 409.628906 474.105469 298.085938 Z M 410.390625 297.320312 C 410.390625 345.894531 361.832031 345.894531 361.832031 345.894531 L 356.980469 345.894531 C 308.421875 345.894531 308.421875 297.320312 308.421875 297.320312 L 308.421875 112.277344 C 308.421875 63.703125 356.980469 63.703125 356.980469 63.703125 L 361.832031 63.703125 C 410.390625 63.703125 410.390625 112.277344 410.390625 112.277344 Z M 410.390625 297.320312 "/>
<path style=" stroke:none;fill-rule:nonzero;fill:rgb(0%,0%,0%);fill-opacity:1;" d="M 58.449219 596.617188 L 71.753906 596.617188 L 33.46875 544.722656 C 52.484375 543.414062 62.117188 530.234375 62.117188 515.105469 C 62.117188 499.246094 51.398438 485.519531 30.277344 485.519531 L 0 485.519531 L 0 596.617188 L 11.136719 596.617188 L 11.136719 544.820312 L 20.992188 544.820312 Z M 11.167969 496.117188 L 30.277344 496.117188 C 43.453125 496.117188 50.730469 503.871094 50.730469 515.105469 C 50.730469 526.4375 43.292969 534.351562 30.277344 534.351562 L 11.167969 534.351562 Z M 144.976562 496.117188 L 144.976562 485.519531 L 86.207031 485.519531 L 86.207031 596.617188 L 144.941406 596.617188 L 144.941406 586.019531 L 97.375 586.019531 L 97.375 544.820312 L 135.371094 544.820312 L 135.371094 534.351562 L 97.375 534.351562 L 97.375 496.117188 Z M 227.035156 596.617188 L 238.773438 596.617188 L 204.125 485.519531 L 192.960938 485.519531 L 158.28125 596.617188 L 170.242188 596.617188 L 178.921875 567.605469 L 218.292969 567.605469 Z M 182.082031 557.011719 L 198.480469 502.117188 L 215.070312 557.011719 Z M 265.382812 485.519531 L 254.25 485.519531 L 254.25 596.617188 L 308.902344 596.617188 L 308.902344 586.019531 L 265.382812 586.019531 Z M 417.792969 496.117188 L 417.792969 485.519531 L 359.054688 485.519531 L 359.054688 596.617188 L 417.792969 596.617188 L 417.792969 586.019531 L 370.191406 586.019531 L 370.191406 544.820312 L 408.191406 544.820312 L 408.191406 534.351562 L 370.191406 534.351562 L 370.191406 496.117188 Z M 490.824219 519.636719 L 501.863281 519.636719 L 501.863281 517.179688 C 501.863281 496.628906 488.300781 483.253906 468.042969 483.253906 C 449.410156 483.253906 436.074219 495.605469 436.074219 512.839844 C 436.074219 529.179688 446.21875 537.636719 460.703125 542.585938 L 472.285156 546.574219 C 485.398438 551.074219 492.417969 556.660156 492.417969 568.054688 C 492.417969 580.210938 482.207031 588.222656 468.777344 588.222656 C 454.867188 588.222656 444.65625 578.394531 444.65625 564.351562 L 444.65625 561.289062 L 433.523438 561.289062 L 433.523438 564.480469 C 433.523438 585.574219 449.699219 598.820312 468.777344 598.820312 C 487.441406 598.820312 503.585938 586.691406 503.585938 567.605469 C 503.585938 550.5625 493.246094 542.136719 477.933594 536.777344 L 466.160156 532.753906 C 454.164062 528.605469 447.242188 522.863281 447.242188 512.394531 C 447.242188 500.808594 456.492188 493.851562 468.074219 493.851562 C 481.601562 493.851562 490.855469 502.914062 490.855469 517.277344 L 490.855469 519.636719 Z M 583.761719 485.519531 L 513.984375 485.519531 L 513.984375 496.117188 L 543.339844 496.117188 L 543.339844 596.648438 L 554.503906 596.648438 L 554.503906 496.117188 L 583.792969 496.117188 L 583.792969 485.519531 Z M 650.21875 596.617188 L 661.960938 596.617188 L 627.28125 485.519531 L 616.113281 485.519531 L 581.433594 596.617188 L 593.398438 596.617188 L 602.074219 567.605469 L 641.445312 567.605469 Z M 605.265625 557.011719 L 621.664062 502.117188 L 638.253906 557.011719 Z M 728.164062 485.519531 L 658.386719 485.519531 L 658.386719 496.117188 L 687.738281 496.117188 L 687.738281 596.648438 L 698.875 596.648438 L 698.875 496.117188 L 728.164062 496.117188 Z M 804.863281 496.117188 L 804.863281 485.519531 L 746.125 485.519531 L 746.125 596.617188 L 804.863281 596.617188 L 804.863281 586.019531 L 757.257812 586.019531 L 757.257812 544.820312 L 795.257812 544.820312 L 795.257812 534.351562 L 757.257812 534.351562 L 757.257812 496.117188 Z M 804.863281 496.117188 "/>
</g>
</svg>
